<?xml version="1.0" standalone="no"?>
<!DOCTYPE svg PUBLIC "-//W3C//DTD SVG 20010904//EN"
 "http://www.w3.org/TR/2001/REC-SVG-20010904/DTD/svg10.dtd">
<svg version="1.0" xmlns="http://www.w3.org/2000/svg"
 width="900.000000pt" height="900.000000pt" viewBox="0 0 900.000000 900.000000"
 preserveAspectRatio="xMidYMid meet">
<metadata>
Created by potrace 1.10, written by Peter Selinger 2001-2011
</metadata>
<g transform="translate(0.000000,900.000000) scale(0.100000,-0.100000)"
fill="#000000" stroke="none">
<path d="M530 7039 c-81 -6 -124 -20 -214 -68 -136 -72 -262 -230 -299 -376
-14 -52 -13 -289 0 -340 14 -53 40 -112 53 -120 5 -3 10 -13 10 -22 0 -8 14
-34 32 -57 46 -61 3914 -3930 3978 -3980 66 -52 135 -91 207 -118 78 -29 308
-29 386 0 72 27 141 66 207 118 64 50 3932 3919 3978 3980 18 23 32 49 32 57
0 9 4 19 10 22 13 8 50 93 50 115 0 29 11 50 26 50 11 0 14 25 14 125 0 100
-3 125 -14 125 -15 0 -26 21 -26 50 0 11 -16 54 -37 97 -29 62 -53 95 -122
163 -83 82 -124 109 -254 164 -54 23 -320 23 -374 0 -79 -34 -110 -49 -163
-83 -37 -23 -634 -613 -1780 -1758 -949 -947 -1732 -1723 -1740 -1723 -8 0
-791 776 -1740 1723 -1146 1145 -1743 1735 -1780 1758 -148 93 -239 114 -440
98z"/>
</g>
</svg>
