<?xml version="1.0" standalone="no"?>
<!DOCTYPE svg PUBLIC "-//W3C//DTD SVG 20010904//EN"
 "http://www.w3.org/TR/2001/REC-SVG-20010904/DTD/svg10.dtd">
<svg version="1.0" xmlns="http://www.w3.org/2000/svg"
 width="300.000000pt" height="300.000000pt" viewBox="0 0 300.000000 300.000000"
 preserveAspectRatio="xMidYMid meet">
<metadata>
Created by potrace 1.10, written by Peter Selinger 2001-2011
</metadata>
<g transform="translate(0.000000,300.000000) scale(0.100000,-0.100000)"
fill="#000000" stroke="none">
<path d="M1449 2584 l-419 -419 567 -567 568 -568 413 413 c227 226 415 422
418 435 11 43 -8 77 -94 165 -90 92 -138 123 -175 111 -12 -3 -96 -56 -186
-117 -187 -125 -184 -133 -32 93 130 193 136 169 -86 393 -98 98 -190 185
-205 193 -35 18 -62 18 -99 -2 -17 -8 -33 -14 -35 -11 -2 2 3 24 13 49 22 61
11 86 -76 172 -57 57 -75 68 -110 73 l-43 6 -419 -419z"/>
<path d="M747 1882 c-171 -173 -172 -159 7 -341 73 -75 141 -152 151 -170 13
-25 16 -51 13 -100 -5 -87 -27 -118 -137 -189 -255 -165 -525 -345 -592 -394
-139 -103 -183 -180 -183 -318 0 -116 27 -185 103 -261 76 -76 145 -103 261
-103 70 0 94 4 140 25 106 49 141 92 388 469 245 375 244 373 287 397 49 28
140 31 188 7 17 -9 93 -77 168 -150 183 -179 167 -179 343 -4 l131 130 -565
565 c-311 311 -567 565 -570 565 -4 0 -63 -58 -133 -128z m-300 -1392 c91 -55
82 -206 -14 -247 -124 -51 -241 66 -190 190 30 71 133 101 204 57z"/>
</g>
</svg>
