<?xml version="1.0" standalone="no"?>
<!DOCTYPE svg PUBLIC "-//W3C//DTD SVG 20010904//EN"
 "http://www.w3.org/TR/2001/REC-SVG-20010904/DTD/svg10.dtd">
<svg version="1.0" xmlns="http://www.w3.org/2000/svg"
 width="300.000000pt" height="300.000000pt" viewBox="0 0 300.000000 300.000000"
 preserveAspectRatio="xMidYMid meet">
<metadata>
Created by potrace 1.10, written by Peter Selinger 2001-2011
</metadata>
<g transform="translate(0.000000,300.000000) scale(0.100000,-0.100000)"
fill="#000000" stroke="none">
<path d="M172 2950 c-100 -51 -154 -138 -155 -250 0 -123 -11 -110 561 -683
l517 -517 -522 -523 c-360 -361 -528 -536 -543 -566 -66 -131 -13 -298 114
-363 58 -30 176 -36 247 -13 51 16 85 49 579 541 l525 524 510 -510 c354 -354
524 -517 559 -537 46 -25 61 -28 146 -28 81 0 102 4 144 25 53 27 85 61 119
124 17 32 22 58 22 121 0 69 -4 87 -29 132 -20 37 -172 193 -548 564 l-520
512 520 521 c579 581 558 554 550 683 -9 158 -122 267 -278 267 -122 0 -111 9
-678 -557 l-512 -512 -313 311 c-558 555 -728 719 -765 738 -23 12 -65 21
-112 24 -69 3 -80 1 -138 -28z"/>
</g>
</svg>
