<?xml version="1.0" standalone="no"?>
<!DOCTYPE svg PUBLIC "-//W3C//DTD SVG 20010904//EN"
 "http://www.w3.org/TR/2001/REC-SVG-20010904/DTD/svg10.dtd">
<svg version="1.0" xmlns="http://www.w3.org/2000/svg"
 width="300.000000pt" height="300.000000pt" viewBox="0 0 300.000000 300.000000"
 preserveAspectRatio="xMidYMid meet">
<metadata>
Created by potrace 1.10, written by Peter Selinger 2001-2011
</metadata>
<g transform="translate(0.000000,300.000000) scale(0.100000,-0.100000)"
fill="#000000" stroke="none">
<path d="M983 2984 c-18 -9 -42 -31 -53 -49 -20 -32 -20 -48 -20 -1436 0
-1356 1 -1405 19 -1435 52 -86 189 -81 238 9 17 30 18 111 18 1427 0 1377 0
1395 -20 1429 -38 64 -116 87 -182 55z"/>
<path d="M1450 2483 c-24 -9 -61 -46 -76 -75 -12 -23 -14 -171 -14 -910 0
-836 1 -885 18 -917 50 -93 195 -93 242 0 19 37 20 65 20 919 0 953 3 906 -54
959 -26 24 -103 38 -136 24z"/>
<path d="M2341 2472 c-19 -10 -43 -34 -53 -53 -17 -32 -18 -81 -18 -917 0
-972 -3 -932 62 -972 64 -39 153 -17 195 47 17 26 18 76 18 923 0 847 -1 897
-18 923 -41 63 -121 84 -186 49z"/>
<path d="M532 2221 c-32 -15 -47 -31 -62 -63 -19 -41 -20 -70 -20 -658 0 -582
1 -617 19 -657 42 -92 154 -108 227 -32 l29 30 3 647 c2 628 2 648 -17 679
-41 66 -109 86 -179 54z"/>
<path d="M1895 1970 c-35 -14 -67 -58 -76 -102 -11 -56 -11 -680 0 -737 24
-121 187 -153 251 -48 19 30 20 53 20 417 0 364 -1 387 -20 417 -33 54 -113
79 -175 53z"/>
<path d="M80 1713 c-19 -10 -45 -33 -57 -52 -21 -31 -23 -46 -23 -160 0 -108
3 -131 20 -159 59 -97 191 -92 242 9 26 49 26 249 0 298 -35 70 -116 98 -182
64z"/>
<path d="M2801 1713 c-66 -35 -76 -59 -79 -201 -2 -106 0 -133 15 -161 53
-101 184 -106 243 -9 17 28 20 51 20 158 0 106 -3 130 -20 157 -39 65 -117 89
-179 56z"/>
</g>
</svg>
