<?xml version="1.0" standalone="no"?>
<!DOCTYPE svg PUBLIC "-//W3C//DTD SVG 20010904//EN"
 "http://www.w3.org/TR/2001/REC-SVG-20010904/DTD/svg10.dtd">
<svg version="1.0" xmlns="http://www.w3.org/2000/svg"
 width="300.000000pt" height="300.000000pt" viewBox="0 0 300.000000 300.000000"
 preserveAspectRatio="xMidYMid meet">
<metadata>
Created by potrace 1.10, written by Peter Selinger 2001-2011
</metadata>
<g transform="translate(0.000000,300.000000) scale(0.100000,-0.100000)"
fill="#000000" stroke="none">
<path d="M121 2649 c-46 -18 -84 -53 -102 -93 -18 -39 -19 -82 -18 -866 l0
-825 36 75 c104 215 219 456 304 635 69 147 105 210 135 241 77 78 18 74 1097
74 l959 0 -4 143 c-4 156 -13 184 -68 230 -17 15 -47 31 -68 37 -23 6 -241 10
-593 10 l-555 0 -110 152 c-155 216 -103 198 -593 197 -223 0 -406 -4 -420
-10z"/>
<path d="M677 1704 c-99 -31 -106 -43 -401 -662 -202 -424 -266 -569 -262
-587 9 -35 50 -80 93 -101 36 -18 86 -19 1083 -22 575 -2 1077 0 1117 3 55 5
84 14 125 38 l53 32 258 513 c228 455 257 517 257 560 0 100 -75 198 -174 227
-74 22 -2077 21 -2149 -1z"/>
</g>
</svg>
