<?xml version="1.0" standalone="no"?>
<!DOCTYPE svg PUBLIC "-//W3C//DTD SVG 20010904//EN"
 "http://www.w3.org/TR/2001/REC-SVG-20010904/DTD/svg10.dtd">
<svg version="1.0" xmlns="http://www.w3.org/2000/svg"
 width="300.000000pt" height="300.000000pt" viewBox="0 0 300.000000 300.000000"
 preserveAspectRatio="xMidYMid meet">
<metadata>
Created by potrace 1.10, written by Peter Selinger 2001-2011
</metadata>
<g transform="translate(0.000000,300.000000) scale(0.100000,-0.100000)"
fill="#000000" stroke="none">
<path d="M1067 2846 c-151 -63 -242 -200 -240 -361 1 -126 59 -235 163 -308
75 -52 144 -70 244 -65 142 8 257 87 320 218 28 59 31 74 31 160 0 85 -3 102
-31 160 -37 79 -108 151 -183 187 -46 22 -73 27 -151 30 -83 3 -102 1 -153
-21z"/>
<path d="M2291 2499 c-40 -12 -106 -52 -144 -88 -42 -38 -74 -98 -92 -169
l-16 -62 68 -68 c73 -71 119 -150 131 -225 10 -59 40 -72 162 -72 79 0 103 4
142 24 75 37 134 95 170 169 30 60 33 75 33 152 0 101 -27 171 -95 244 -64 69
-134 99 -239 103 -47 1 -101 -2 -120 -8z"/>
<path d="M527 2150 c-124 -32 -219 -119 -257 -239 -30 -96 -22 -190 24 -280
28 -52 102 -120 164 -149 49 -23 70 -27 147 -26 73 0 99 4 137 23 44 21 48 26
67 91 22 71 93 180 132 200 19 11 21 17 15 69 -13 119 -99 236 -209 286 -59
27 -163 39 -220 25z"/>
<path d="M1741 2150 c-140 -30 -256 -150 -277 -288 -6 -42 -6 -43 60 -108 72
-70 120 -154 132 -230 5 -38 10 -45 43 -56 20 -7 72 -13 116 -12 106 0 185 34
255 111 69 75 93 144 88 253 -2 70 -8 95 -32 143 -71 139 -233 218 -385 187z"/>
<path d="M967 2073 c-10 -3 -17 -8 -15 -11 34 -63 61 -138 65 -179 3 -29 6
-53 7 -53 1 0 25 9 55 21 78 29 163 35 239 15 35 -9 67 -14 72 -11 4 2 10 24
12 49 3 24 19 71 35 104 l30 60 -30 6 c-34 7 -443 6 -470 -1z"/>
<path d="M1113 1772 c-152 -54 -237 -178 -237 -344 0 -66 5 -86 33 -142 61
-125 177 -197 316 -197 141 0 254 71 317 199 30 60 33 75 33 152 0 71 -5 94
-26 140 -61 128 -168 200 -307 207 -57 3 -91 -1 -129 -15z"/>
<path d="M2246 1738 c-10 -70 -44 -150 -86 -206 -44 -58 -46 -62 -26 -62 8 0
39 -13 70 -30 184 -96 283 -260 294 -482 l5 -108 31 0 c98 0 328 50 421 91
l45 20 0 207 c0 225 -8 280 -56 374 -39 77 -120 152 -211 196 l-78 37 -201 3
-201 4 -7 -44z"/>
<path d="M392 1419 c-175 -22 -335 -166 -376 -336 -13 -54 -16 -110 -14 -277
l3 -209 65 -19 c111 -32 293 -67 382 -74 l85 -7 5 119 c4 99 9 130 32 184 53
129 153 235 277 293 l68 31 -31 35 c-42 48 -87 148 -95 209 -4 40 -10 51 -27
56 -31 8 -300 5 -374 -5z"/>
<path d="M1668 1424 c-5 -4 -8 -22 -8 -39 0 -64 -65 -204 -113 -244 -16 -12
-9 -18 64 -53 136 -66 240 -190 283 -337 10 -34 16 -92 16 -152 0 -54 3 -100
8 -102 4 -2 51 0 105 5 114 10 265 47 344 83 l55 25 -4 217 c-4 184 -8 228
-25 280 -49 148 -155 253 -303 298 -59 18 -408 34 -422 19z"/>
<path d="M961 1044 c-161 -43 -292 -180 -326 -341 -14 -64 -22 -473 -10 -473
2 0 53 -13 112 -29 209 -56 289 -66 528 -66 235 0 308 10 454 60 122 41 111
16 111 248 0 145 -5 220 -15 266 -39 166 -164 292 -330 336 -81 21 -445 20
-524 -1z"/>
</g>
</svg>
