<?xml version="1.0" standalone="no"?>
<!DOCTYPE svg PUBLIC "-//W3C//DTD SVG 20010904//EN"
 "http://www.w3.org/TR/2001/REC-SVG-20010904/DTD/svg10.dtd">
<svg version="1.0" xmlns="http://www.w3.org/2000/svg"
 width="300.000000pt" height="300.000000pt" viewBox="0 0 300.000000 300.000000"
 preserveAspectRatio="xMidYMid meet">
<metadata>
Created by potrace 1.10, written by Peter Selinger 2001-2011
</metadata>
<g transform="translate(0.000000,300.000000) scale(0.100000,-0.100000)"
fill="#000000" stroke="none">
<path d="M336 2619 c-72 -12 -135 -55 -173 -119 -28 -46 -33 -63 -33 -120 0
-117 61 -204 168 -242 54 -19 2350 -19 2404 0 112 40 173 132 166 251 -7 125
-86 210 -213 231 -73 12 -2248 11 -2319 -1z"/>
<path d="M310 1741 c-72 -23 -138 -79 -164 -143 -20 -48 -20 -148 0 -196 19
-47 67 -97 119 -125 l40 -22 1195 0 1195 0 40 22 c90 48 135 123 135 223 0
100 -45 175 -135 223 l-40 22 -1180 2 c-649 1 -1191 -2 -1205 -6z"/>
<path d="M333 870 c-82 -17 -144 -62 -179 -132 -22 -44 -26 -61 -22 -123 3
-59 9 -81 33 -121 38 -61 102 -101 180 -114 80 -13 2230 -13 2310 0 127 21
206 106 213 231 7 115 -44 197 -154 246 -37 17 -110 18 -1189 20 -632 0 -1169
-3 -1192 -7z"/>
</g>
</svg>
