<?xml version="1.0" standalone="no"?>
<!DOCTYPE svg PUBLIC "-//W3C//DTD SVG 20010904//EN"
 "http://www.w3.org/TR/2001/REC-SVG-20010904/DTD/svg10.dtd">
<svg version="1.0" xmlns="http://www.w3.org/2000/svg"
 width="300.000000pt" height="300.000000pt" viewBox="0 0 300.000000 300.000000"
 preserveAspectRatio="xMidYMid meet">
<metadata>
Created by potrace 1.10, written by Peter Selinger 2001-2011
</metadata>
<g transform="translate(0.000000,300.000000) scale(0.100000,-0.100000)"
fill="#000000" stroke="none">
<path d="M395 2620 c-143 -22 -244 -125 -265 -272 -13 -87 -12 -748 0 -827 6
-35 20 -81 31 -103 42 -82 141 -152 234 -165 l45 -6 0 -81 c0 -119 34 -167
120 -168 57 -1 82 20 172 143 l80 109 154 0 154 0 0 -192 c0 -208 10 -300 39
-357 28 -54 89 -110 151 -140 l55 -26 385 -3 385 -3 126 -124 c121 -120 127
-125 168 -125 95 0 131 46 131 168 l0 80 43 6 c95 14 196 85 238 168 35 68 41
160 37 566 -5 451 -5 450 -97 543 -93 93 -94 93 -528 97 l-373 3 0 187 c-1
292 -18 363 -112 447 -91 82 -67 79 -733 81 -324 1 -612 -1 -640 -6z m1267
-149 c19 -13 46 -40 59 -59 23 -35 24 -41 27 -269 l3 -233 -163 0 c-168 0
-256 -13 -307 -46 -13 -9 -27 -12 -31 -7 -4 4 -49 100 -100 213 -51 113 -99
213 -108 223 -8 9 -27 17 -42 17 -15 0 -34 -8 -42 -17 -25 -29 -328 -704 -328
-731 0 -50 54 -79 93 -49 9 6 39 62 66 122 l50 110 161 3 c90 1 160 -1 160 -7
0 -4 -7 -26 -16 -47 -11 -26 -18 -83 -22 -176 l-5 -138 -163 0 c-89 0 -174 -4
-188 -10 -15 -5 -62 -58 -113 -127 l-88 -118 -2 95 c-4 153 -1 148 -125 160
-91 8 -139 38 -169 104 -17 38 -19 72 -19 446 0 239 4 420 10 441 12 43 73
106 114 118 17 6 301 9 642 8 l610 -2 36 -24z m-611 -483 l46 -103 -49 -3
c-26 -2 -70 -2 -96 0 l-49 3 46 103 c25 56 48 102 51 102 3 0 26 -46 51 -102z
m1595 -228 c24 -12 54 -39 70 -62 l29 -41 0 -437 0 -436 -27 -42 c-37 -56 -77
-75 -172 -82 -103 -9 -106 -13 -106 -147 0 -57 -3 -103 -7 -103 -4 0 -64 56
-133 125 l-127 125 -392 0 c-373 0 -394 1 -431 20 -22 11 -52 39 -67 62 l-28
42 0 436 0 436 27 41 c15 23 44 49 70 62 43 21 50 21 647 21 588 0 606 -1 647
-20z"/>
<path d="M1956 1604 c-12 -11 -16 -36 -16 -90 l0 -74 -133 0 c-154 0 -177 -9
-177 -65 0 -62 14 -65 283 -65 l239 0 -7 -32 c-18 -86 -109 -228 -146 -228
-17 0 -43 31 -124 148 -32 45 -105 20 -105 -37 0 -30 46 -109 92 -158 l30 -31
-53 -16 c-29 -9 -72 -16 -96 -16 -54 0 -98 -36 -88 -73 13 -45 44 -59 111 -52
73 8 136 25 193 54 41 21 41 21 79 2 49 -25 133 -48 204 -57 52 -6 59 -4 83
20 19 19 24 32 20 49 -11 35 -43 57 -87 57 -47 0 -126 19 -134 32 -4 5 5 22
19 36 57 61 107 165 131 275 5 20 12 27 29 27 39 0 67 27 67 65 0 56 -23 65
-177 65 l-133 0 0 74 c0 84 -13 106 -60 106 -16 0 -36 -7 -44 -16z"/>
</g>
</svg>
