<?xml version="1.0" standalone="no"?>
<!DOCTYPE svg PUBLIC "-//W3C//DTD SVG 20010904//EN"
 "http://www.w3.org/TR/2001/REC-SVG-20010904/DTD/svg10.dtd">
<svg version="1.0" xmlns="http://www.w3.org/2000/svg"
 width="300.000000pt" height="300.000000pt" viewBox="0 0 300.000000 300.000000"
 preserveAspectRatio="xMidYMid meet">
<metadata>
Created by potrace 1.10, written by Peter Selinger 2001-2011
</metadata>
<g transform="translate(0.000000,300.000000) scale(0.100000,-0.100000)"
fill="#000000" stroke="none">
<path d="M2055 2986 c-41 -19 -1411 -1394 -1425 -1429 -14 -40 -13 -82 5 -125
21 -50 1369 -1396 1419 -1417 79 -33 137 -11 233 87 88 89 110 149 79 221 -8
19 -247 266 -580 599 -311 312 -566 571 -566 575 0 4 254 262 565 573 390 391
569 576 580 602 33 81 17 129 -73 221 -100 102 -162 127 -237 93z"/>
</g>
</svg>
