<?xml version="1.0" standalone="no"?>
<!DOCTYPE svg PUBLIC "-//W3C//DTD SVG 20010904//EN"
 "http://www.w3.org/TR/2001/REC-SVG-20010904/DTD/svg10.dtd">
<svg version="1.0" xmlns="http://www.w3.org/2000/svg"
 width="512.000000pt" height="512.000000pt" viewBox="0 0 512.000000 512.000000"
 preserveAspectRatio="xMidYMid meet">
<metadata>
Created by potrace 1.10, written by Peter Selinger 2001-2011
</metadata>
<g transform="translate(0.000000,512.000000) scale(0.050000,-0.050000)"
fill="#000000" stroke="none">
<path d="M6180 10206 c-102 -35 -4201 -4108 -4273 -4246 -59 -115 -51 -346 17
-460 117 -196 4153 -4191 4274 -4230 229 -74 352 -25 638 257 255 251 293 315
293 503 0 212 47 160 -1786 1995 l-1713 1715 1723 1725 c1891 1894 1802 1793
1783 2019 -13 160 -66 247 -276 460 -278 282 -440 344 -680 262z"/>
</g>
</svg>
