<?xml version="1.0" standalone="no"?>
<!DOCTYPE svg PUBLIC "-//W3C//DTD SVG 20010904//EN"
 "http://www.w3.org/TR/2001/REC-SVG-20010904/DTD/svg10.dtd">
<svg version="1.0" xmlns="http://www.w3.org/2000/svg"
 width="300.000000pt" height="300.000000pt" viewBox="0 0 300.000000 300.000000"
 preserveAspectRatio="xMidYMid meet">
<metadata>
Created by potrace 1.10, written by Peter Selinger 2001-2011
</metadata>
<g transform="translate(0.000000,300.000000) scale(0.100000,-0.100000)"
fill="#000000" stroke="none">
<path d="M2155 2984 c-38 -8 -113 -36 -165 -61 l-95 -45 -312 -311 c-313 -311
-334 -337 -300 -365 7 -6 60 -16 118 -21 99 -10 170 -25 232 -50 16 -6 36 -11
44 -11 9 0 114 97 233 215 228 226 256 247 355 259 65 9 154 -15 209 -54 123
-89 159 -264 81 -395 -13 -22 -180 -196 -372 -387 -390 -388 -394 -392 -518
-392 -80 0 -155 29 -216 82 -46 40 -78 52 -140 52 -64 0 -107 -18 -146 -63
-91 -103 -59 -232 81 -332 134 -95 264 -138 416 -137 153 1 278 39 397 120 32
22 230 213 439 424 l382 383 45 95 c102 212 102 409 0 620 -38 80 -59 109
-132 181 -72 73 -101 94 -181 132 -153 74 -300 93 -455 61z"/>
<path d="M1256 2027 c-93 -9 -177 -36 -266 -84 -54 -29 -135 -105 -466 -437
l-402 -401 -45 -95 c-102 -212 -102 -409 0 -620 38 -80 59 -109 132 -181 72
-73 101 -94 181 -132 211 -102 408 -102 620 0 l95 45 313 311 c312 311 333
337 299 365 -7 6 -63 16 -124 22 -64 6 -143 21 -187 35 -42 14 -82 25 -89 25
-6 0 -108 -97 -227 -214 -165 -165 -227 -220 -264 -237 -258 -114 -517 150
-394 401 39 80 710 749 783 781 105 46 230 25 328 -55 24 -19 55 -40 70 -45
39 -15 121 -14 160 3 72 30 126 129 112 205 -10 55 -30 85 -95 144 -141 127
-328 185 -534 164z"/>
</g>
</svg>
