<?xml version="1.0" standalone="no"?>
<!DOCTYPE svg PUBLIC "-//W3C//DTD SVG 20010904//EN"
 "http://www.w3.org/TR/2001/REC-SVG-20010904/DTD/svg10.dtd">
<svg version="1.0" xmlns="http://www.w3.org/2000/svg"
 width="300.000000pt" height="300.000000pt" viewBox="0 0 300.000000 300.000000"
 preserveAspectRatio="xMidYMid meet">
<metadata>
Created by potrace 1.10, written by Peter Selinger 2001-2011
</metadata>
<g transform="translate(0.000000,300.000000) scale(0.100000,-0.100000)"
fill="#000000" stroke="none">
<path d="M598 2981 c-122 -39 -206 -113 -261 -229 l-32 -67 0 -1185 0 -1185
32 -67 c89 -189 295 -288 484 -232 145 43 243 135 290 272 18 53 19 102 19
1212 0 1110 -1 1159 -19 1212 -74 215 -304 335 -513 269z"/>
<path d="M2170 2981 c-77 -25 -115 -46 -168 -94 -55 -51 -88 -102 -113 -175
-18 -53 -19 -102 -19 -1212 0 -1110 1 -1159 19 -1212 47 -137 145 -229 290
-272 189 -56 395 43 484 232 l32 67 0 1185 0 1185 -32 67 c-91 192 -303 291
-493 229z"/>
</g>
</svg>
