<?xml version="1.0" standalone="no"?>
<!DOCTYPE svg PUBLIC "-//W3C//DTD SVG 20010904//EN"
 "http://www.w3.org/TR/2001/REC-SVG-20010904/DTD/svg10.dtd">
<svg version="1.0" xmlns="http://www.w3.org/2000/svg"
 width="300.000000pt" height="300.000000pt" viewBox="0 0 300.000000 300.000000"
 preserveAspectRatio="xMidYMid meet">
<metadata>
Created by potrace 1.10, written by Peter Selinger 2001-2011
</metadata>
<g transform="translate(0.000000,300.000000) scale(0.100000,-0.100000)"
fill="#000000" stroke="none">
<path d="M1295 2984 c-335 -51 -593 -177 -828 -404 -259 -249 -399 -522 -451
-881 -34 -232 -5 -500 79 -725 42 -109 130 -271 199 -364 83 -111 259 -280
366 -351 458 -305 1025 -342 1513 -98 192 96 401 272 533 449 228 306 333 716
278 1089 -49 338 -175 597 -404 834 -249 259 -522 399 -881 451 -128 19 -281
19 -404 0z m-37 -971 c15 -11 37 -35 50 -53 22 -33 22 -36 23 -429 1 -218 0
-409 -1 -426 -6 -93 -99 -159 -197 -140 -49 9 -108 68 -122 123 -8 29 -11 165
-9 440 l3 398 25 37 c38 55 85 78 148 74 32 -2 63 -11 80 -24z m652 4 c30 -16
51 -37 67 -67 23 -43 23 -45 23 -449 0 -402 0 -407 -22 -451 -61 -120 -234
-117 -292 3 -14 31 -16 86 -16 445 0 267 4 421 11 439 34 92 139 128 229 80z"/>
</g>
</svg>
