<?xml version="1.0" standalone="no"?>
<!DOCTYPE svg PUBLIC "-//W3C//DTD SVG 20010904//EN"
 "http://www.w3.org/TR/2001/REC-SVG-20010904/DTD/svg10.dtd">
<svg version="1.0" xmlns="http://www.w3.org/2000/svg"
 width="300.000000pt" height="300.000000pt" viewBox="0 0 300.000000 300.000000"
 preserveAspectRatio="xMidYMid meet">
<metadata>
Created by potrace 1.10, written by Peter Selinger 2001-2011
</metadata>
<g transform="translate(0.000000,300.000000) scale(0.100000,-0.100000)"
fill="#000000" stroke="none">
<path d="M1295 2984 c-335 -51 -593 -177 -828 -404 -259 -249 -399 -522 -451
-881 -34 -232 -5 -500 79 -725 42 -109 130 -271 199 -364 83 -111 259 -280
366 -351 458 -305 1025 -342 1513 -98 192 96 401 272 533 449 228 306 333 716
278 1089 -49 338 -175 597 -404 834 -249 259 -522 399 -881 451 -128 19 -281
19 -404 0z m11 -960 c213 -128 710 -443 730 -463 33 -33 33 -89 0 -122 -20
-20 -517 -335 -730 -463 -92 -56 -154 -44 -176 32 -14 50 -14 934 0 984 22 76
84 88 176 32z"/>
</g>
</svg>
