<?xml version="1.0" standalone="no"?>
<!DOCTYPE svg PUBLIC "-//W3C//DTD SVG 20010904//EN"
 "http://www.w3.org/TR/2001/REC-SVG-20010904/DTD/svg10.dtd">
<svg version="1.0" xmlns="http://www.w3.org/2000/svg"
 width="300.000000pt" height="300.000000pt" viewBox="0 0 300.000000 300.000000"
 preserveAspectRatio="xMidYMid meet">
<metadata>
Created by potrace 1.10, written by Peter Selinger 2001-2011
</metadata>
<g transform="translate(0.000000,300.000000) scale(0.100000,-0.100000)"
fill="#000000" stroke="none">
<path d="M1395 2869 c-418 -28 -822 -268 -1051 -625 -91 -142 -170 -344 -198
-509 -21 -118 -21 -352 0 -470 33 -193 130 -420 247 -579 210 -284 539 -486
881 -541 128 -21 337 -21 457 0 346 60 669 260 876 541 119 163 216 391 248
584 19 122 19 338 0 460 -51 314 -236 632 -483 832 -285 229 -608 330 -977
307z m112 -822 c652 -375 676 -390 708 -435 26 -38 30 -52 30 -112 0 -60 -4
-74 -30 -112 -33 -46 -55 -59 -673 -415 -317 -182 -334 -187 -432 -136 -44 23
-59 39 -82 82 l-28 53 0 527 c0 491 2 529 19 566 39 84 111 128 198 122 45 -3
82 -21 290 -140z"/>
</g>
</svg>
