<?xml version="1.0" standalone="no"?>
<!DOCTYPE svg PUBLIC "-//W3C//DTD SVG 20010904//EN"
 "http://www.w3.org/TR/2001/REC-SVG-20010904/DTD/svg10.dtd">
<svg version="1.0" xmlns="http://www.w3.org/2000/svg"
 width="300.000000pt" height="300.000000pt" viewBox="0 0 300.000000 300.000000"
 preserveAspectRatio="xMidYMid meet">
<metadata>
Created by potrace 1.10, written by Peter Selinger 2001-2011
</metadata>
<g transform="translate(0.000000,300.000000) scale(0.100000,-0.100000)"
fill="#000000" stroke="none">
<path d="M1215 2911 c-295 -104 -772 -284 -824 -310 -77 -40 -89 -65 -120
-246 -36 -205 -46 -351 -46 -670 0 -429 19 -543 119 -731 137 -258 450 -552
856 -806 160 -99 258 -148 299 -148 66 0 283 120 509 282 420 302 682 614 736
878 53 260 44 871 -18 1262 -16 100 -37 136 -99 172 -48 28 -622 245 -903 341
-104 36 -205 65 -224 65 -19 -1 -147 -41 -285 -89z m388 -937 c57 -19 129 -81
164 -142 22 -37 28 -61 31 -131 4 -82 2 -89 -30 -151 -23 -45 -48 -76 -81
-100 l-47 -35 0 -155 c0 -136 -2 -159 -20 -187 -51 -85 -180 -83 -237 3 -15
23 -19 57 -23 185 l-5 156 -45 35 c-30 22 -56 56 -78 98 -32 62 -34 69 -30
151 3 70 9 94 31 131 34 59 107 123 160 142 56 19 153 20 210 0z"/>
</g>
</svg>
