<?xml version="1.0" standalone="no"?>
<!DOCTYPE svg PUBLIC "-//W3C//DTD SVG 20010904//EN"
 "http://www.w3.org/TR/2001/REC-SVG-20010904/DTD/svg10.dtd">
<svg version="1.0" xmlns="http://www.w3.org/2000/svg"
 width="300.000000pt" height="300.000000pt" viewBox="0 0 300.000000 300.000000"
 preserveAspectRatio="xMidYMid meet">
<metadata>
Created by potrace 1.10, written by Peter Selinger 2001-2011
</metadata>
<g transform="translate(0.000000,300.000000) scale(0.100000,-0.100000)"
fill="#000000" stroke="none">
<path d="M2302 2783 c-10 -10 -49 -66 -86 -124 l-67 -107 -127 -32 c-198 -49
-202 -62 -72 -215 68 -80 89 -112 86 -128 -12 -57 -17 -247 -7 -265 18 -34 46
-31 173 19 68 27 128 49 133 49 6 0 65 -22 133 -49 183 -72 188 -68 176 130
l-9 141 88 105 c88 106 102 137 73 166 -8 8 -73 29 -145 47 l-130 32 -72 114
c-85 136 -106 153 -147 117z"/>
<path d="M442 2420 c-163 -24 -300 -160 -332 -330 -13 -71 -13 -1179 0 -1251
24 -127 109 -236 228 -292 l67 -32 201 -3 202 -3 -2 -129 c-1 -127 -1 -128 29
-172 55 -79 166 -111 245 -70 19 10 140 98 269 195 l234 177 297 0 c241 0 306
3 351 16 140 41 247 157 278 302 7 35 11 205 11 492 l0 438 -93 37 -93 37
-104 -43 c-133 -54 -186 -56 -256 -14 -31 20 -56 46 -72 75 -23 43 -24 50 -17
176 l6 131 -70 84 c-42 49 -79 104 -90 134 l-19 50 -608 1 c-335 1 -633 -2
-662 -6z m1397 -670 c31 -16 46 -65 31 -100 -7 -17 -21 -35 -31 -40 -11 -6
-215 -10 -512 -10 -471 0 -496 1 -518 19 -33 27 -33 95 0 122 22 18 47 19 518
19 297 0 501 -4 512 -10z m-430 -436 c40 -33 43 -83 6 -119 l-24 -25 -270 0
c-177 0 -278 4 -294 11 -26 12 -47 47 -47 77 0 24 28 62 54 72 11 5 139 9 283
9 l261 1 31 -26z"/>
</g>
</svg>
