<?xml version="1.0" standalone="no"?>
<!DOCTYPE svg PUBLIC "-//W3C//DTD SVG 20010904//EN"
 "http://www.w3.org/TR/2001/REC-SVG-20010904/DTD/svg10.dtd">
<svg version="1.0" xmlns="http://www.w3.org/2000/svg"
 width="300.000000pt" height="300.000000pt" viewBox="0 0 300.000000 300.000000"
 preserveAspectRatio="xMidYMid meet">
<metadata>
Created by potrace 1.10, written by Peter Selinger 2001-2011
</metadata>
<g transform="translate(0.000000,300.000000) scale(0.100000,-0.100000)"
fill="#000000" stroke="none">
<path d="M317 2899 c-93 -22 -169 -87 -203 -175 -18 -47 -19 -95 -19 -1224 0
-1132 1 -1177 19 -1224 25 -66 85 -129 149 -157 42 -18 75 -23 174 -27 l122
-4 3 458 c3 443 4 461 24 505 27 58 85 116 143 143 46 21 53 21 771 21 718 0
725 0 771 -21 58 -27 116 -85 143 -143 20 -44 21 -62 24 -505 l3 -458 122 4
c98 3 132 9 172 27 65 29 118 81 147 145 l23 51 3 970 c2 672 -1 978 -8 996
-6 14 -145 159 -308 321 -330 330 -304 312 -447 306 l-80 -3 -5 -405 c-6 -456
-4 -446 -82 -498 l-42 -27 -436 0 -436 0 -42 27 c-78 52 -76 42 -82 498 l-5
405 -290 2 c-159 0 -307 -3 -328 -8z"/>
<path d="M1127 2903 c-4 -3 -7 -172 -7 -375 l0 -368 380 0 380 0 -2 373 -3
372 -371 3 c-204 1 -373 -1 -377 -5z"/>
<path d="M779 1001 l-29 -29 0 -441 0 -441 750 0 750 0 0 441 0 441 -29 29
-29 29 -692 0 -692 0 -29 -29z"/>
</g>
</svg>
