<?xml version="1.0" standalone="no"?>
<!DOCTYPE svg PUBLIC "-//W3C//DTD SVG 20010904//EN"
 "http://www.w3.org/TR/2001/REC-SVG-20010904/DTD/svg10.dtd">
<svg version="1.0" xmlns="http://www.w3.org/2000/svg"
 width="300.000000pt" height="300.000000pt" viewBox="0 0 300.000000 300.000000"
 preserveAspectRatio="xMidYMid meet">
<metadata>
Created by potrace 1.10, written by Peter Selinger 2001-2011
</metadata>
<g transform="translate(0.000000,300.000000) scale(0.100000,-0.100000)"
fill="#000000" stroke="none">
<path d="M1059 2970 c-170 -21 -371 -98 -529 -201 -86 -57 -264 -236 -322
-324 -148 -228 -218 -475 -204 -730 27 -542 390 -985 915 -1122 169 -44 436
-42 601 3 119 33 243 87 340 149 l43 27 356 -354 c229 -228 370 -361 396 -374
53 -24 156 -24 205 0 49 25 88 64 113 111 28 54 30 154 3 210 -12 25 -150 172
-377 400 l-358 360 38 72 c157 294 186 667 76 973 -79 219 -225 419 -411 562
-72 55 -245 149 -330 179 -155 54 -396 80 -555 59z m377 -416 c148 -42 261
-112 370 -226 96 -99 163 -219 199 -353 23 -83 30 -255 16 -340 -61 -349 -328
-615 -676 -676 -87 -15 -270 -6 -345 16 -158 48 -271 117 -378 229 -129 137
-201 292 -224 485 -9 80 -8 113 6 199 59 371 337 640 721 696 67 10 228 -6
311 -30z"/>
</g>
</svg>
