<?xml version="1.0" standalone="no"?>
<!DOCTYPE svg PUBLIC "-//W3C//DTD SVG 20010904//EN"
 "http://www.w3.org/TR/2001/REC-SVG-20010904/DTD/svg10.dtd">
<svg version="1.0" xmlns="http://www.w3.org/2000/svg"
 width="300.000000pt" height="300.000000pt" viewBox="0 0 300.000000 300.000000"
 preserveAspectRatio="xMidYMid meet">
<metadata>
Created by potrace 1.10, written by Peter Selinger 2001-2011
</metadata>
<g transform="translate(0.000000,300.000000) scale(0.100000,-0.100000)"
fill="#000000" stroke="none">
<path d="M1308 2940 c-69 -11 -103 -28 -145 -72 -40 -42 -53 -75 -64 -167 -14
-126 -73 -211 -178 -259 -84 -39 -174 -37 -265 6 -84 40 -157 43 -224 11 -48
-24 -116 -107 -189 -234 -92 -158 -119 -247 -99 -325 16 -60 40 -90 118 -148
108 -81 155 -192 130 -309 -17 -80 -57 -140 -132 -196 -91 -68 -114 -103 -118
-186 -4 -58 0 -77 27 -139 71 -168 195 -348 263 -381 67 -32 140 -29 224 11
91 43 181 45 265 6 105 -48 164 -133 178 -259 11 -95 28 -135 79 -181 61 -56
99 -63 322 -63 223 1 261 8 322 63 51 46 68 86 79 181 14 126 73 211 178 259
84 39 174 37 265 -6 112 -52 205 -42 277 30 79 79 221 330 237 418 11 59 -2
126 -31 167 -13 18 -52 54 -87 80 -75 56 -115 116 -132 196 -25 117 22 228
132 310 91 68 114 103 118 186 4 58 0 77 -27 139 -71 168 -195 348 -263 381
-67 32 -140 29 -224 -11 -91 -43 -181 -45 -265 -6 -108 49 -164 133 -179 266
-5 45 -16 94 -24 110 -22 42 -89 99 -133 112 -48 15 -359 22 -435 10z m375
-1053 c93 -46 159 -112 205 -206 36 -72 37 -79 37 -181 0 -102 -1 -109 -37
-181 -48 -97 -113 -162 -208 -208 -72 -34 -80 -36 -181 -36 -101 0 -108 1
-180 37 -95 47 -160 112 -207 207 -36 72 -37 79 -37 181 0 102 1 109 37 181
43 87 107 155 188 198 79 42 120 51 223 47 77 -3 97 -8 160 -39z"/>
</g>
</svg>
