<?xml version="1.0" standalone="no"?>
<!DOCTYPE svg PUBLIC "-//W3C//DTD SVG 20010904//EN"
 "http://www.w3.org/TR/2001/REC-SVG-20010904/DTD/svg10.dtd">
<svg version="1.0" xmlns="http://www.w3.org/2000/svg"
 width="300.000000pt" height="300.000000pt" viewBox="0 0 300.000000 300.000000"
 preserveAspectRatio="xMidYMid meet">
<metadata>
Created by potrace 1.10, written by Peter Selinger 2001-2011
</metadata>
<g transform="translate(0.000000,300.000000) scale(0.100000,-0.100000)"
fill="#000000" stroke="none">
<path d="M2349 2772 c-63 -33 -99 -90 -99 -159 0 -56 18 -98 64 -148 l37 -40
-213 -6 c-231 -7 -281 -16 -394 -69 -34 -17 -90 -51 -123 -76 -121 -91 -195
-185 -421 -539 -423 -661 -441 -684 -558 -742 -56 -27 -62 -28 -277 -34 -121
-3 -229 -9 -240 -14 -96 -39 -149 -151 -114 -242 15 -42 79 -102 119 -113 55
-15 423 -12 500 4 152 33 278 104 400 227 78 79 137 165 480 704 220 346 294
437 395 486 47 23 62 24 250 27 l200 3 -36 -38 c-56 -58 -72 -97 -67 -164 5
-68 38 -118 98 -149 43 -22 113 -26 157 -9 41 15 451 425 474 474 23 48 24
103 4 151 -9 22 -96 118 -223 244 -262 263 -298 282 -413 222z"/>
<path d="M115 2406 c-38 -17 -91 -72 -104 -109 -35 -91 19 -204 114 -242 11
-4 121 -11 245 -14 258 -8 259 -8 377 -108 62 -52 116 -82 153 -83 63 -1 152
57 176 117 20 47 17 110 -7 159 -41 85 -219 213 -364 261 -76 25 -91 27 -320
30 -189 2 -246 0 -270 -11z"/>
<path d="M2348 1310 c-58 -31 -91 -82 -96 -149 -5 -67 11 -106 67 -164 l36
-38 -200 3 c-233 4 -246 7 -359 108 -49 43 -80 61 -115 70 -150 36 -276 -116
-212 -255 34 -74 182 -196 299 -246 101 -44 152 -52 370 -58 l213 -6 -37 -40
c-45 -49 -64 -92 -64 -147 0 -127 129 -218 248 -173 67 26 475 434 491 491 15
56 13 93 -8 139 -23 49 -433 459 -474 474 -44 17 -118 12 -159 -9z"/>
</g>
</svg>
