<?xml version="1.0" standalone="no"?>
<!DOCTYPE svg PUBLIC "-//W3C//DTD SVG 20010904//EN"
 "http://www.w3.org/TR/2001/REC-SVG-20010904/DTD/svg10.dtd">
<svg version="1.0" xmlns="http://www.w3.org/2000/svg"
 width="300.000000pt" height="300.000000pt" viewBox="0 0 300.000000 300.000000"
 preserveAspectRatio="xMidYMid meet">
<metadata>
Created by potrace 1.10, written by Peter Selinger 2001-2011
</metadata>
<g transform="translate(0.000000,300.000000) scale(0.100000,-0.100000)"
fill="#000000" stroke="none">
<path d="M1355 2993 c-201 -24 -375 -76 -544 -163 -411 -213 -697 -599 -788
-1065 -24 -125 -24 -405 0 -530 29 -148 74 -279 142 -413 316 -622 1021 -945
1696 -777 127 32 209 64 339 131 401 208 687 598 777 1059 25 128 24 396 -1
530 -135 721 -763 1242 -1486 1233 -58 0 -118 -3 -135 -5z m-342 -597 c18 -8
102 -84 187 -170 85 -86 159 -156 163 -156 5 0 102 74 215 164 114 90 217 166
229 170 26 8 78 -15 87 -39 3 -9 6 -202 6 -428 l0 -411 220 -221 c209 -210
220 -223 220 -259 0 -48 -13 -72 -52 -92 -66 -34 -46 -51 -751 654 -626 626
-657 659 -657 693 0 40 29 85 64 99 29 12 32 12 69 -4z m67 -896 l0 -340 -181
0 -181 0 -29 29 -29 29 0 282 0 282 29 29 29 29 181 0 181 0 0 -340z m820
-658 c0 -106 -4 -201 -10 -211 -13 -25 -61 -44 -87 -34 -11 4 -149 109 -307
233 l-285 225 -1 335 0 335 345 -345 345 -345 0 -193z"/>
</g>
</svg>
