<?xml version="1.0" standalone="no"?>
<!DOCTYPE svg PUBLIC "-//W3C//DTD SVG 20010904//EN"
 "http://www.w3.org/TR/2001/REC-SVG-20010904/DTD/svg10.dtd">
<svg version="1.0" xmlns="http://www.w3.org/2000/svg"
 width="300.000000pt" height="300.000000pt" viewBox="0 0 300.000000 300.000000"
 preserveAspectRatio="xMidYMid meet">
<metadata>
Created by potrace 1.10, written by Peter Selinger 2001-2011
</metadata>
<g transform="translate(0.000000,300.000000) scale(0.100000,-0.100000)"
fill="#000000" stroke="none">
<path d="M1355 2993 c-201 -24 -375 -76 -544 -163 -411 -213 -697 -599 -788
-1065 -24 -125 -24 -405 0 -530 29 -148 74 -279 142 -413 316 -622 1021 -945
1696 -777 127 32 209 64 339 131 401 208 687 598 777 1059 25 128 24 396 -1
530 -135 721 -763 1242 -1486 1233 -58 0 -118 -3 -135 -5z m220 -738 l25 -24
0 -731 0 -731 -26 -25 c-19 -20 -31 -24 -50 -20 -14 4 -138 95 -275 204 l-249
197 0 375 0 375 246 195 c136 107 254 198 263 202 28 12 41 9 66 -17z m612
-184 c141 -111 239 -293 263 -487 30 -242 -77 -508 -263 -655 -57 -46 -93 -50
-131 -14 -18 17 -26 34 -26 59 0 29 11 45 79 114 119 120 174 250 174 412 0
162 -55 292 -174 412 -68 69 -79 85 -79 114 0 25 8 42 26 59 38 36 74 32 131
-14z m-247 -266 c91 -67 150 -187 150 -305 0 -118 -59 -238 -149 -304 -60 -44
-91 -52 -129 -32 -34 17 -42 33 -42 81 0 29 7 40 47 70 80 61 98 95 98 185 0
90 -18 124 -98 185 -41 32 -47 40 -47 74 0 39 12 61 45 80 30 17 71 5 125 -34z
m-1050 -305 l0 -290 -152 0 c-160 1 -174 4 -196 47 -16 30 -16 456 0 486 22
43 36 46 196 47 l152 0 0 -290z"/>
</g>
</svg>
