<?xml version="1.0" encoding="UTF-8" standalone="no"?>
<svg
   version="1.0"
   width="300.000000pt"
   height="300.000000pt"
   viewBox="0 0 300.000000 300.000000"
   preserveAspectRatio="xMidYMid meet"
   id="svg2"
   sodipodi:docname="user.svg"
   inkscape:version="1.3 (0e150ed6c4, 2023-07-21)"
   xmlns:inkscape="http://www.inkscape.org/namespaces/inkscape"
   xmlns:sodipodi="http://sodipodi.sourceforge.net/DTD/sodipodi-0.dtd"
   xmlns="http://www.w3.org/2000/svg"
   xmlns:svg="http://www.w3.org/2000/svg">
  <defs
     id="defs2" />
  <sodipodi:namedview
     id="namedview2"
     pagecolor="#ffffff"
     bordercolor="#000000"
     borderopacity="0.25"
     inkscape:showpageshadow="2"
     inkscape:pageopacity="0.0"
     inkscape:pagecheckerboard="0"
     inkscape:deskcolor="#d1d1d1"
     inkscape:document-units="pt"
     inkscape:zoom="2.9325"
     inkscape:cx="200"
     inkscape:cy="200"
     inkscape:window-width="3440"
     inkscape:window-height="1369"
     inkscape:window-x="1072"
     inkscape:window-y="317"
     inkscape:window-maximized="1"
     inkscape:current-layer="svg2" />
  <metadata
     id="metadata1">&#10;Created by potrace 1.10, written by Peter Selinger 2001-2011&#10;</metadata>
  <g
     transform="translate(0.000000,300.000000) scale(0.100000,-0.100000)"
     fill="#000000"
     stroke="none"
     id="g2">
    <path
       id="path2"
       d="M 773,1535 C 540,1484 377,1293 300,985 255,798 236,518 260,389 277,302 323,215 388,151 456,83 522,46 628,19 699,1 745,0 1494,0 c 647,0 803,3 858,15 208,44 354,196 388,405 20,118 1,368 -41,548 -60,259 -182,440 -354,522 -86,42 -208,67 -271,57 -20,-3 -87,-38 -150,-78 -258,-162 -443,-187 -680,-93 -38,15 -106,51 -152,80 -156,101 -184,108 -319,79 z m 552,1449 c -38,-8 -113,-36 -165,-61 -81,-39 -108,-59 -185,-137 -155,-155 -215,-300 -215,-515 1,-279 149,-514 408,-645 175,-89 447,-89 624,-1 122,62 251,184 321,305 14,25 38,81 53,125 25,73 28,93 28,220 0,123 -4,149 -26,217 -40,121 -92,204 -182,293 -144,142 -285,203 -481,211 -76,2 -132,-1 -180,-12 z" />
  </g>
</svg>
